<svg xmlns="http://www.w3.org/2000/svg" width="469" height="183"><path fill="#fff" d="M468 178v-3c0-2.2-1.801-4-4-4h-3c-2.2 0-4 1.8-4 4v3c0 2.156 1.78 4 4 4h3c2.172 0 4-1.844 4-4zm-2 1c0 .55-.45 1-1 1h-5c-.551 0-1-.45-1-1v-5c0-.55.449-1 1-1h5c.55 0 1 .45 1 1v5zm-1-1h-5l2.5-3.333 2.5 3.333z"/><path fill="#fff" d="M440 171h-3c-2.22 0-4 1.844-4 4v3c0 2.2 1.8 4 4 4h3c2.199 0 4-1.8 4-4v-3c0-2.156-1.828-4-4-4zm2 8c0 .55-.45 1-1 1h-5c-.551 0-1-.45-1-1v-5c0-.55.449-1 1-1h5c.55 0 1 .45 1 1v5zm-3.5-.667l-2.5-3.333h5l-2.5 3.333z"/><path fill="#fff" d="M408 175v3c0 2.219 1.844 4 4 4h3c2.2 0 4-1.8 4-4v-3c0-2.2-1.8-4-4-4h-3c-2.156 0-4 1.828-4 4zm8-2c.55 0 1 .45 1 1v5c0 .55-.45 1-1 1h-5c-.55 0-1-.45-1-1v-5c0-.55.45-1 1-1h5zm-.667 3.5l-3.333 2.5v-5l3.333 2.5z"/><path fill="#fff" d="M391 171h-3c-2.2 0-4 1.8-4 4v3c0 2.2 1.8 4 4 4h3c2.155 0 4-1.781 4-4v-3c0-2.172-1.844-4-4-4zm1 2c.55 0 1 .45 1 1v5c0 .55-.45 1-1 1h-5c-.55 0-1-.45-1-1v-5c0-.55.45-1 1-1h5z"/><path fill="#fff" d="M360.024 179h1.976v-9h2v9h1.976l-2.976 3-2.976-3zm8.976 0h-2v2h2v-2zm1-3h-3v2h3v-2zm2-6h-5v2h5v-2zm-1 3h-4v2h4v-2z"/><path fill="#fff" d="M336.024 179h1.976v-9h2v9h1.976l-2.976 3-2.976-3zm8.976-9h-2v2h2v-2zm1 3h-3v2h3v-2zm2 6h-5v2h5v-2zm-1-3h-4v2h4v-2z"/><path fill="#fff" d="M312.024 179h1.976v-9h2v9h1.976l-2.976 3-2.976-3zm7.976-9v4h2v1h1v-5h-3zm2.008 3h-1v-2h1v2zm-1.008 9h1v-5h-2v1h1v4z"/><path fill="#fff" d="M288.024 179h1.976v-9h2v9h1.976l-2.976 3-2.976-3zm7.976-2v4h2v1h1v-5h-3zm2.008 3h-1v-2h1v2zm-1.008-5h1v-5h-2v1h1v4z"/><path fill="#fff" d="M264.024 179h1.976v-9h2v9h1.976l-2.976 3-2.976-3zm6.976-2v5h1v-1h1v1h1v-5h-3zm2.008 3h-1v-2h1v2zm-2.008-10v1h2v1h1v-2h-3zm0 5h3v-1h-2v-1h-1v2zm1.008-2h1v-1h-1v1z"/><path fill="#fff" d="M240.024 179h1.976v-9h2v9h1.976l-2.976 3-2.976-3zm6.976-9v5h1v-1h1v1h1v-5h-3zm2.008 3h-1v-2h1v2zm-2.008 4v1h2v1h1v-2h-3zm0 5h3v-1h-2v-1h-1v2zm1.008-2h1v-1h-1v1z"/><path fill="#fff" d="M216.024 179h1.976v-9h2v9h1.976l-2.976 3-2.976-3zm6-6h1.976v9h2v-9h1.976l-2.976-3-2.976 3z"/><path fill="#fff" d="M200.655 179c-.073.042-.523.3-1.357.3-.672 0-1.422-.347-2.058-.332-.218.005-1.021.095-1.542.255.544-.5.812-.873.995-1.127.273-.386.446-1.424.336-2.096h1.971v-1h-2.415c-.376-.65-.854-1.424-.854-2.042 0-.377.138-.716.409-1.005.273-.291.926-.5 1.406-.5.63 0 1.844.422 1.844 1.547h1.531c0-1.609-1.609-2.971-3.315-2.971-1.099 0-1.982.298-2.629.882-1.273 1.151-.955 2.515-.759 3.047.116.313.255.661.442 1.042h-1.66v1h2.208c.472.951.404 1.955-.239 2.688-.37.422-.562.517-.922.75l.551 1.455s.839-.455 1.724-.526c.886-.072 2.24.618 2.828.618.588-.002 1.138.02 2.013-.518l-.508-1.467z"/><path fill="#fff" d="M178.327 177.854c0-2.186-1.766-2.744-2.685-2.93 0 0-.269-.043-.643-.138v-3.067c1.062.188 1.266.752 1.363 1.6h1.59c-.098-2.31-1.86-2.881-2.953-3.014v-.789h-1v.779c-1.497.143-2.974 1.092-2.974 3.014 0 1.893 1.395 2.465 2.7 2.854l.272.079v3.346c-.984-.202-1.59-.878-1.658-1.909h-1.389c.027.957.095 1.741.679 2.331.578.583 1.41.933 2.368 1.034v.786h1v-.771c2.061-.152 3.33-1.342 3.33-3.205zm-5.671-4.743c0-1.064.672-1.307 1.345-1.395v2.741c-.657-.176-1.345-.279-1.345-1.346zm2.344 6.524v-3.109c.937.291 1.699.673 1.699 1.598 0 1.167-1.053 1.446-1.699 1.511z"/><path fill="#fff" d="M151.529 180.141c-.612 0-2.198-.543-2.527-3.141h2.998l1-1h-4.062c0-.365.024-.693.062-1h3l1-1h-3.793c.541-1.748 1.758-2.156 2.313-2.156.716 0 2.308.594 2.308 2.156h1.81c-.036-.701-.255-1.396-.661-2.093-.748-1.259-1.924-1.888-3.532-1.888-1.206 0-2.197.471-2.976 1.407-.354.425-.844 1.308-1.124 2.572h-1.345l-1 1h2.182c-.033.317-.056.647-.057 1h-1.125l-1 1h2.173c.172 1.794.781 2.899 1.134 3.37.788 1.052 1.87 1.576 3.246 1.576 1.113 0 2.025-.389 2.736-1.168.661-.723 1.081-1.654 1.277-2.778h-1.737c-.001 1.518-1.599 2.143-2.3 2.143z"/><path fill="#fff" d="M131.853 172.975l-2.829-2.828c-.194-.194-.512-.194-.707 0-.194.195-.194.513 0 .707l.354.354-2.671 2.792h-3l2.101 2.122-2.075 2.075-3.026 3.803 3.803-3.025 2.075-2.074 2.122 2.099v-3l2.792-2.671.354.354c.195.193.513.194.708 0 .195-.197.194-.513-.001-.708z"/><g><rect x="99" y="172" fill="#fff" width="6" height="7" opacity=".3"/><path fill="#fff" d="M102.031 170c-2.391 0-4.03.919-4.03 1.469v9.531c0 .55.45 1 1 1h6c.55 0 1-.45 1-1v-9.531c-.001-.55-1.579-1.469-3.97-1.469zm-.031 11.536c-.573 0-1.037-.464-1.037-1.036 0-.574.464-1.038 1.037-1.038.572 0 1.037.464 1.037 1.038 0 .572-.464 1.036-1.037 1.036zm3-2.536h-6v-7h6v7z"/></g><path fill="#fff" d="M76.232 182.139c-.601 0-1.166-.232-1.591-.658l-1.415-1.414c-.425-.426-.659-.989-.659-1.592 0-.601.234-1.166.659-1.591l.551-.551c.192.362.445.703.756 1.013l.177.178-.953.951 2.475 2.477 3.89-3.891-2.122-2.122 1.05-1.051.187.166 1.414 1.414c.877.877.877 2.305 0 3.182l-2.829 2.83c-.424.424-.989.659-1.59.659zm.531-4.196l-1.414-1.414c-.425-.424-.659-.989-.659-1.59 0-.602.234-1.166.659-1.592l2.828-2.828c.425-.426.99-.658 1.591-.658.602 0 1.166.232 1.591.658l1.415 1.414c.426.426.659.989.659 1.592 0 .601-.48 1.412-.907 1.838l-.283.283c-.21-.353-.471-.685-.776-.99l-.177-.178.955-.953-2.476-2.476-3.889 3.89 2.12 2.121-1.055 1.056-.182-.173z"/><path fill="#fff" d="M54.495 172.512c-1.859-2.848-5.5-.98-5.5 1.646 0 2.022 3.165 3.768 5.5 6.96 2.334-3.192 5.499-4.938 5.499-6.96 0-2.629-3.524-4.494-5.499-1.646zm2.083 4.394c-.669.654-1.371 1.369-2.083 2.189-.713-.82-1.373-1.52-2.042-2.175-1.125-1.103-2.158-2.06-2.158-2.767 0-1.055.916-1.871 1.79-1.871.55 0 1.021.297 1.404.883l.976 1.492 1.016-1.465c.414-.596.923-.91 1.476-.91.868 0 1.737.8 1.737 1.871-.001.71-.991 1.652-2.116 2.753z"/><path fill="#fff" d="M29.175 180.691l-.073-.07 2.537-2.557 2.515-2.496c.61-.608.932-1.236.982-1.918.099-1.309-.785-2.469-2.055-2.698-.165-.03-.322-.041-.475-.041-1.152 0-1.963.815-2.746 1.604l-3.476 3.477-.438.415c-.754.694-1.463 1.349-1.32 2.331.128.884.863 1.279 1.536 1.279.469 0 .924-.187 1.249-.512l5.477-5.479c.224-.225.297-.504.197-.746-.091-.221-.3-.362-.532-.362-.175 0-.349.081-.502.233-.137.119-.262.25-.387.382l-3.769 3.731-.692-.674.069-.072s3.504-3.572 3.887-3.953c.42-.42.811-.681 1.463-.681l.292.017c.579.107 1.004.486 1.174 1.039.195.629.019 1.338-.448 1.804l-3.931 3.933c-.188.188-.379.396-.576.612-.623.68-1.071 1.17-1.766 1.507-.367.18-.781.273-1.197.273-.929 0-1.761-.451-2.227-1.211-.637-1.043-.442-2.455.461-3.358l5.115-5.115c.396-.397.708-.712 1.113-.956.591-.359 1.273-.549 1.974-.549.526 0 1.053.113 1.521.327 1.044.479 1.761 1.416 1.967 2.569.223 1.244-.172 2.517-1.058 3.4l-5.169 5.113-.692-.598z"/><g fill="#fff"><path opacity=".3" enable-background="new" d="M2.668 178c.683 1.134 1.914 1.9 3.332 1.9s2.647-.768 3.332-1.9h-6.664z"/><path d="M7.547 172.952c-.301 0-.547.246-.547.547 0 .104.038.196.089.28l-.012.01-1.218 1.263c-.41.066-.725.425-.725.855 0 .479.39.872.872.872.479 0 .87-.393.87-.872 0-.189-.062-.365-.166-.509l.548-1.446c.085.055.18.094.288.094.301 0 .547-.246.547-.547.001-.302-.245-.547-.546-.547z"/><circle cx="8.547" cy="175.452" r=".547"/><circle cx="4.547" cy="173.499" r=".547"/><circle cx="3.454" cy="175.452" r=".547"/><path d="M6 170.229c-3.188 0-5.771 2.584-5.771 5.771s2.583 5.77 5.771 5.77c3.187 0 5.771-2.584 5.771-5.771s-2.583-5.77-5.771-5.77zm0 10.042c-2.355 0-4.271-1.916-4.271-4.271s1.916-4.271 4.271-4.271c2.354 0 4.271 1.916 4.271 4.271s-1.916 4.271-4.271 4.271z"/></g><path fill="#fff" d="M457.291 148.708l-1.291 1.292v-4h4l-1.293 1.292 2 2-1.415 1.416-2.001-2zm3.416 6l-1.415-1.416-2 2-1.292-1.292v4h4l-1.293-1.292 2-2zm4-1.416l-1.415 1.416 2 2-1.292 1.292h4v-4l-1.293 1.292-2-2zm-.707-7.292l1.291 1.292-2 2 1.416 1.416 2-2 1.293 1.292v-4h-4z"/><g fill="#fff"><rect x="437" y="152" opacity=".5" enable-background="new" width="2" height="1"/><rect x="432" y="153" opacity=".3" enable-background="new" width="12" height="1"/><path d="M437 154h-5v2c0 .55.449 1 1 1h10c.55 0 1-.45 1-1v-2h-7z"/><path d="M443 148h-3v-1c0-.551-.448-1-1-1h-2c-.553 0-1 .449-1 1v1h-3c-.551 0-1 .45-1 1v4h5v-1h2v1h5v-4c0-.55-.45-1-1-1zm-6-1h2v1h-2v-1z"/></g><g fill="#fff"><path d="M413 153v5l2-2v-3l3.5-5h-9l3.5 5z"/><rect x="409" y="146" width="10" height="1"/></g><g><path fill="#fff" d="M396 152c0-.553-.447-1-1-1h-10c-.554 0-1 .447-1 1v1c0 .553.446 1 1 1h10c.553 0 1-.447 1-1v-1zm-1 1h-10v-1h10v1zm1 3c0-.553-.447-1-1-1h-10c-.554 0-1 .447-1 1v1c0 .553.446 1 1 1h10c.553 0 1-.447 1-1v-1zm-1 1h-10v-1h10v1zm1-9c0-.553-.447-1-1-1h-10c-.554 0-1 .447-1 1v1c0 .553.446 1 1 1h10c.553 0 1-.447 1-1v-1zm-1 1h-10v-1h10v1z"/><rect x="385" y="148" opacity=".5" fill="#fff" enable-background="new" width="8" height="1"/><rect x="385" y="152" opacity=".5" fill="#fff" enable-background="new" width="5" height="1"/><rect x="385" y="156" opacity=".5" fill="#fff" enable-background="new" width="7" height="1"/></g><path fill="#fff" d="M371.989 148.955l-2.513 1.268-1.447-2.32 2.59-1.383c-1.006-.717-2.083-.64-3.062-.088-1.284.723-1.85 2.219-1.41 3.562l-5.994 5.991c-.2.203-.2.535 0 .736l1.104 1.104c.202.202.534.202.736 0l5.959-5.96c.798.283 1.718.224 2.528-.233.979-.551 1.599-1.443 1.509-2.677z"/><g fill="#fff"><path d="M342.473 149.163c-.057-.386-.343-.708-.347-1.104-.245.123-.332.525-.623.233-.074.181-.27.342-.321.554.345.228.894.239 1.291.317-.018-.12-.07-.015 0 0z"/><path d="M342 146.24c-3.141 0-5.761 2.619-5.761 5.76s2.62 5.76 5.761 5.76c3.14 0 5.76-2.619 5.76-5.76s-2.62-5.76-5.76-5.76zm3.148 9.645c-.562.549-1.393 1.135-2.208 1.115-.121-.203.018-.289.018-.468-.409-.087-.665-.466-.867-.798-.066-.418.507-.772.354-1.121-.67.076-1.116-.579-1.706-.811-.358-.139-.729-.248-1.072-.426-.229-.118-.391-.352-.664-.336.018-.443-.344-.809-.328-1.042.125-.595-.294-1.155-.136-1.796.145-.59.521-1.092.576-1.708.023-.146-.199-.197-.153-.406.05-.226.664-.544.857-.604.327-.104.586.045.915-.021.534-.107 1.095-.128 1.541-.479.115.024.251.025.367.002.438.365 1.516.23 1.369 1.055 0 0-.387.216-1.088-.075.115.048.014.331-.014.441.574.327 1.318.573 1.612 1.223-.249.308-.56.17-.891.17-.104.115-.149.214-.104.364-.616.261-.478.579-.675 1.107-.123.33-.439.354-.368.758.057.359-.101.631-.149.97 0 0-.546-.304-.804-.729-.13-.215-.558-.146-.796-.193-.517.199-.133 1.287.284.841.523-.558.6.146.566.489.167.101.409.025.514.242.018.103-.043.41.031.51.145.221.555-.047.663-.119.457-.309 1.119-.229 1.64-.246.308.203.685.172 1.003.34.27.141.478-.008.732.162-.07.667-.56 1.147-1.019 1.589z"/></g><path fill="#fff" d="M318 146.219c-3.191 0-5.781 2.588-5.781 5.781s2.59 5.781 5.781 5.781c3.192 0 5.78-2.588 5.78-5.781s-2.587-5.781-5.78-5.781zm1.012 2.765v3h1.973l-2.985 4.016-2.938-4.016 1.938.016v-3l2.012-.016z"/><path fill="#fff" d="M294 157.781c3.19 0 5.78-2.588 5.78-5.781s-2.59-5.781-5.78-5.781c-3.193 0-5.781 2.588-5.781 5.781s2.588 5.781 5.781 5.781zm-1.012-2.765v-3h-1.973l2.985-4.016 2.938 4.016-1.938-.016v3l-2.012.016z"/><path fill="#fff" d="M270 146.219c-3.193 0-5.781 2.588-5.781 5.781 0 3.191 2.588 5.781 5.781 5.781 3.192 0 5.78-2.59 5.78-5.781.001-3.193-2.587-5.781-5.78-5.781zm3 6.781h-3l.016 1.938-4.016-2.938 4.016-2.984v1.974h3l-.016 2.01z"/><path fill="#fff" d="M240.219 152c0 3.191 2.588 5.781 5.781 5.781 3.192 0 5.78-2.59 5.78-5.781 0-3.193-2.588-5.781-5.78-5.781-3.193 0-5.781 2.588-5.781 5.781zm2.765-1.012h3v-1.973l4.016 2.985-4.017 2.938.017-1.938h-3l-.016-2.012z"/><g fill="#fff"><rect x="219" y="145" width="6" height="2"/><path opacity=".3" enable-background="new" d="M221.608 154.242c-.216.061-.607.258-.607.482v-1.537l4-1.656v1.402l-3.393 1.309z"/><rect x="219" y="147" opacity=".5" enable-background="new" width="6" height="1"/><path d="M225.391 153.63l-3.391 1.308v1.062c0 1.07-.5 1.938-1.5 1.938s-1.484-.852-1.484-1.922c0-.94.004-2.015.008-3.02l-1.211.848c-.199.153-.48.15-.66-.027l-1.12-1.098c-.151-.152-.157-.339-.062-.531l2.299-3.623s.342-.563.732-.563h5.252c.189 0 1.748 1.649 1.748 1.729v3.418c-.002.222-.395.419-.611.481zm-1.282-4.63h-5.025l-2.364 3.391.828.859 1.835-1.463c.151-.116.294-.137.464-.051.172.084.154.259.154.449v4.564s1 .453 1 0v-2.024c0-.226.393-.422.607-.482l3.393-1.309v-2.934l-.892-1z"/></g><g fill="#fff"><rect x="196" y="156" width="6" height="2"/><path opacity=".3" enable-background="new" d="M198.608 148.758c-.216-.061-.607-.258-.607-.482v1.537l4 1.656v-1.402l-3.393-1.309z"/><rect x="196" y="155" opacity=".5" enable-background="new" width="6" height="1"/><path d="M203 149.854v3.418c0 .078-1.559 1.729-1.748 1.729h-5.252c-.392 0-.732-.563-.732-.563l-2.299-3.623c-.095-.192-.089-.379.062-.531l1.121-1.098c.18-.179.461-.182.66-.027l1.211.848c-.004-1.005-.008-2.078-.008-3.02 0-1.07.484-1.922 1.484-1.922s1.501.865 1.501 1.935v1.062l3.391 1.308c.216.062.609.259.609.484zm-1 3.146v-2.936l-3.393-1.308c-.216-.062-.607-.258-.607-.481v-2.025s-1-.469-1 0v4.564c0 .189.018.365-.154.449-.17.084-.312.064-.464-.052l-1.835-1.463-.828.858 2.364 3.392h5.025l.892-.998z"/></g><g fill="#fff"><rect x="178" y="150" width="2" height="6"/><path opacity=".3" enable-background="new" d="M170.696 152.607c-.062-.215-.258-.607-.481-.607h1.537l1.656 4h-1.403l-1.309-3.393z"/><rect x="177" y="150" opacity=".5" enable-background="new" width="1" height="6"/><path d="M171.308 156.391l-1.308-3.391h-1.062c-1.069 0-1.938-.5-1.938-1.5s.852-1.484 1.922-1.484c.94 0 2.015.004 3.02.008l-.848-1.211c-.153-.199-.15-.48.028-.66l1.097-1.12c.152-.151.339-.157.531-.062l3.654 2.299s.596.342.596.731v5.252c0 .19-1.713 1.748-1.792 1.748h-3.418c-.224-.001-.421-.394-.482-.61zm4.692-1.282v-5.026l-3.422-2.364-.875.828 1.455 1.835c.116.151.132.294.047.464-.084.172-.264.154-.454.154h-4.751v1h2.213c.224 0 .421.393.481.607l1.308 3.393h2.935l1.063-.891z"/></g><g fill="#fff"><rect x="144" y="150" width="2" height="6"/><path opacity=".3" enable-background="new" d="M153.242 152.607c.062-.215.258-.607.481-.607h-1.537l-1.656 4h1.403l1.309-3.393z"/><rect x="146" y="150" opacity=".5" enable-background="new" width="1" height="6"/><path d="M152.147 157h-3.418c-.078 0-1.729-1.559-1.729-1.748v-5.252l.562-.732 3.624-2.299c.192-.095.379-.089.531.062l1.097 1.121c.179.179.183.461.028.66l-.848 1.211c1.005-.004 2.079-.008 3.02-.008 1.07 0 1.922.483 1.922 1.483s-.866 1.502-1.936 1.502h-1.062l-1.308 3.391c-.062.216-.258.609-.483.609zm-3.147-1h2.935l1.308-3.393c.062-.215.258-.607.481-.607h2.026s.469-1 0-1h-4.563000000000001c-.19 0-.365.018-.45-.154-.085-.17-.064-.312.052-.464l1.462-1.835-.859-.828-3.392 2.364v5.026l1 .891z"/></g><g fill="#fff"><g><polygon opacity=".3" enable-background="new" points="131,151.75 131,153 130,153 126.5,148 128.5,148"/><path d="M127 157h-.5l-1-2.125-1.5-2.125v-3.75h1l1.356-1h2.144l2.5 3.75v1.25h-4.5l.5 2.25v1.75m0 1c.552 0 1-.697 1-1.25v-1.5c0-.066-.28-1.25-.28-1.25h3.28c.552 0 1-.697 1-1.25v-1c0-.266-.105-.551-.293-.738l-2.375-3.441c-.187-.277-.498-.569-.832-.569h-2.5c-.155 0-1.394 1-1.394 1h-.606c-.553 0-1 .197-1 .75v4c0 .217.069.458.2.631l1.445 1.959.959 1.981c.169.34.517.679.896.679l.5-.002zm-5-10h-2v6h2v-6z"/></g><rect x="122" y="148" opacity=".5" enable-background="new" width="1" height="6"/></g><g fill="#fff"><g><polygon opacity=".3" enable-background="new" points="107,152.25 107,151 106,151 102.5,156 104.5,156"/><path d="M103 147v1.75l-.5 2.25h4.5v1.25l-2.5 3.75h-2.144l-1.356-1h-1v-3.75l1.5-2.125 1-2.125h.5m0-1h-.5c-.379 0-.726.339-.896.678l-.959 1.982-1.445 1.959c-.131.173-.2.414-.2.631v4c0 .553.447.75 1 .75h.606s1.238 1 1.394 1h2.5c.334 0 .646-.292.832-.57l2.375-3.441c.188-.188.293-.473.293-.737v-1c0-.554-.448-1.25-1-1.25h-3.28s.28-1.185.28-1.25v-1.5c0-.555-.448-1.252-1-1.252zm-5 4h-2v6h2v-6z"/></g><rect x="98" y="150" opacity=".5" enable-background="new" width="1" height="6"/></g><polygon fill="#fff" points="78,148 79.553,146.204 80,148.536 82.243,147.758 81.464,150 83.795,150.447 82,152 83.795,153.553 81.464,154 82.243,156.242 80,155.464 79.553,157.796 78,156 76.447,157.796 76,155.464 73.757,156.242 74.536,154 72.205,153.553 74,152 72.205,150.447 74.536,150 73.757,147.758 76,148.536 76.447,146.204"/><path fill="#fff" d="M58.792 154h-.176l-1.174-1.73-.626-3.27h-.006c-.19-1-1.069-1.967-2.2-2.23l.181-.373c.082-.26-.062-.396-.321-.396h-.938c-.258 0-.401.192-.32.453l.18.321c-1.129.264-2.009 1.226-2.2 2.226h-.006l-.626 3.269-1.175 1.73h-.176c-.258 0-.47.225-.47.497 0 .274.197.581.438.679 0 0 2.007.819 4.823.819 2.815 0 4.823-.82 4.823-.82.24-.098.438-.401.438-.677s-.212-.498-.469-.498zm-4.792 2.96c.358 0 .7-.021 1.023-.062-.155.643-.553 1.102-1.023 1.102-.471 0-.869-.459-1.025-1.104.325.042.666.064 1.025.064z"/><g fill="#fff"><path d="M23 151.5v.5c0 .553 1 1 1 1v-2.5s-1 .447-1 1z"/><path d="M35.5 147c-.275 0-.5.225-.5.5v8.5c0 .275.225.5.5.5.274 0 .5-.225.5-.5v-8.5c0-.275-.225-.5-.5-.5z"/><path d="M25.25 150c-.275 0-.25.225-.25.5v2.5c0 .143.555 3.508.555 3.508.05.271.253.492.528.492h.834c.274 0 .465.027.423-.244l-.467-2.756h.377l6.75 2v-8.5l-6.75 2.5h-2z"/></g><g fill="#fff"><path d="M11.69 154l-1.717-7.324c-.06-.269-.334-.676-.61-.676h-6.727c-.275 0-.549.346-.61.613l-1.715 7.387h11.379z"/><path d="M11 155h-10c-.553 0-1 .447-1 1v1c0 .553.447 1 1 1h10c.552 0 1-.447 1-1v-1c0-.553-.448-1-1-1zm-2 2h-1v-1h1v1zm2 0h-1v-1h1v1z"/><rect x="10" y="156" opacity=".3" enable-background="new" width="1" height="1"/></g><polygon fill="#fff" points="468,128 465,125.023 465,127 459,127 459,125.023 456,128 459,130.977 459,129 465,129 465,130.977"/><polygon fill="#fff" points="438,134 440.976,131 439,131 439,125 440.976,125 438,122 435.024,125 437,125 437,131 435.024,131"/><g fill="#fff"><polygon points="411,127 408,134 420,134 423,127"/><path d="M420 126v-2h-5c0-.55-.45-1-1-1h-3c-.55 0-1 .45-1 1h-2v6l2-4h10z"/></g><g fill="#fff"><rect x="384" y="126" width="12" height="8"/><path d="M391 124c0-.55-.45-1-1-1h-3c-.55 0-1 .45-1 1h-2v1h12v-1h-5z"/></g><path fill="#fff" d="M371.438 122h-.938c-.231 0-.435.159-.486.385l-.383 1.615h-8.964c-.151 0-.295.068-.392.188-.095.119-.131.273-.098.422l1 4.75c.051.229.337.642.821.642h6.328l-.475 2h-5.351c-.275 0-.5.226-.5.5s.225.5.5.5h.5v.5c0 .274.225.5.5.5.274 0 .5-.226.5-.5v-.502h3v.5c0 .275.225.5.5.5.274 0 .5-.225.5-.5v-.5h.312c.406 0 .578-.391.578-.391l2.005-9.609h.542c.276 0 .5-.225.5-.5s-.223-.5-.499-.5z"/><path fill="#fff" d="M350 130l-2.992 2.829-2.993-2.829h1.985v-4h-3.808l-2.153-2h7.961v6h2zm-14-3v6h8l-2.154-2h-3.846v-4h2.023l-2.993-2.829-2.991 2.829h1.961z"/><polygon fill="#fff" points="314.965,124.046 318.492,127.573 322.021,124.046 324,126.025 318.5,131.54 318.495,131.536 318.487,131.542 312.985,126.025"/><polygon fill="#fff" points="297.021,131.875 293.493,128.348 289.965,131.875 287.985,129.895 293.485,124.381 293.49,124.385 293.498,124.379 299,129.895"/><g fill="#fff"><path d="M272 126v2.5s.153 2.73-2 2.73c-2.154 0-2-1.315-2-2.73v-2.5h-3v2c0 1.57.333 6 5 6s5-4.43 5-6v-2h-3z"/><path opacity=".5" enable-background="new" d="M268 125h-3v-3h3v3zm7-3h-3v3h3v-3z"/></g><path fill="#fff" d="M251 123h-10c-.55 0-1 .45-1 1v6c0 .55.45 1 1 1h1v3l3.037-3h5.963c.55 0 1-.45 1-1v-6c0-.55-.45-1-1-1z"/><path fill="#fff" d="M218.586 126h-2.586v-2h3.414l1.809 1.809-1.414 1.414-1.223-1.223zm8.414 0v1.977l3-3-3-2.951v1.974h-2.414l-6 6h-2.586v2h3.414l6-6h1.586zm0 4h-1.586l-1.224-1.223-1.414 1.414 1.81 1.809h2.414v1.977l3-3-3-2.951v1.974z"/><path fill="#fff" d="M203 123.5v1.5h-11v-1.5c0-.275.225-.5.5-.5h1.5v-1h1v1h5v-1h1v1h1.5c.275 0 .5.225.5.5zm-11 2.5h11v7.5c0 .275-.226.5-.5.5h-10c-.275 0-.5-.225-.5-.5v-7.5zm9 3h1v-1h-1v1zm0 2h1v-1h-1v1zm0 2h1v-1h-1v1zm-2-4h1v-1h-1v1zm0 2h1v-1h-1v1zm0 2h1v-1h-1v1zm-2-4h1v-1h-1v1zm0 2h1v-1h-1v1zm0 2h1v-1h-1v1zm-2-4h1v-1h-1v1zm0 2h1v-1h-1v1zm0 2h1v-1h-1v1zm-2-4h1v-1h-1v1zm0 2h1v-1h-1v1zm0 2h1v-1h-1v1z"/><path fill="#fff" d="M179.627 130.139l-3.627-3.244v-3.395c0-.828-.671-1.5-1.5-1.5s-1.5.672-1.5 1.5v3.395l-3.627 3.244c-.205.185-.373.56-.373.834v.404c0 .275.185.371.411.215l3.589-2.496v2.631c-.446.418-1 .969-1 1.133v.642c0 .274.201.399.446.276l.945-.776h2.215l.945.776c.246.123.447-.002.447-.276v-.642c0-.164-.555-.715-1-1.133v-2.631l3.589 2.496c.226.156.411.061.411-.215v-.404c.002-.276-.165-.651-.371-.834z"/><path fill="#fff" d="M151 128l-1 3-1-3v-1h2v1zm5.467 6h-12.934c-.507 0-.704-.57-.438-1.002l6.422-10.654c.267-.432.699-.369.965.062l6.422 10.561c.266.429.069 1.033-.437 1.033zm-2.019-2l-4.448-7.227-4.448 7.227h3.448v-1h2v1h3.448z"/><g fill="#fff"><path d="M132.351 127.596c-.066-.104-1.044-1.6-2.556-2.808l-.384 1.465c.619.683 1.108 1.368 1.394 1.751-.519.703-1.556 2.229-2.62 2.936l-.381 1.453c2.61-1.01 4.454-3.842 4.547-3.988l.259-.403-.259-.406z"/><path d="M127.579 122l-.372 1.419c-.391-.104-.792-.169-1.208-.169-3.528 0-6.237 4.168-6.352 4.346l-.256.404.259.404c.102.156 2.233 3.412 5.162 4.17l-.374 1.426h1.481l3.142-12h-1.482zm-2.744 4.377s.508.996 1.172 1.63l-.229.872-.468.469c-.704-.449-1.229-1.125-1.539-1.906l1.064-1.065zm-3.639 1.619c.483-.655 1.298-1.742 2.267-2.579-.288.46-.461 1-.461 1.583 0 1.484 1.082 2.709 2.498 2.949l-.368 1.406c-1.802-.523-3.324-2.537-3.936-3.359z"/></g><path fill="#fff" d="M108.351 127.596c-.114-.178-2.822-4.346-6.351-4.346s-6.237 4.168-6.352 4.346l-.257.404.259.404c.114.178 2.822 4.346 6.352 4.346 3.528 0 6.236-4.168 6.351-4.346l.259-.404-.261-.404zm-7.516-1.219s.695 1.373 1.523 1.92l-1.048 1.051c-.704-.449-1.229-1.125-1.539-1.906l1.064-1.065zm1.165 5.227c-2.688 0-4.099-2.658-4.805-3.606.483-.655 1.298-1.742 2.267-2.579-.288.46-.461 1-.461 1.583 0 1.656 1.343 3 3 3s3-1.344 3-3c0-.603-.183-1.161-.487-1.631 1.048.896 1.88 2.082 2.292 2.635-.872 1.178-2.118 3.598-4.806 3.598z"/><path fill="#fff" d="M76.001 126.462c-.546-2.983 2.624-5.004 2.624-5.004-1 3-.377 4.683 1.167 5.334s.345-2.479.222-2.747c2.124 1.424 3.431 3.866 2.91 6.205-.521 2.339-2.348 3.023-3.783 3.525-2.188.553-.335-1.191-.087-2.672.249-1.479-.633-2.611-1.479-3.479.246.562.182 2.498-.267 3.42s-1.612 2.461-2.659 1.789-1.396-1.729-1.489-2.279c-.095-.551-.253-2.242 1.249-3.555-.294.825.045 2.578 1.125 2.312 1.08-.265.699-1.582.467-2.849z"/><path fill="#fff" d="M51.188 125.576c-1.605 2.061-1.241 4.072-1.032 5.283l-2.156 1.934v1.4249999999999998l2.006-2.017.994-.555c1.313-.018 8.993 3.379 8.993-9.646-4.892 1.419-6.89 1.119-8.805 3.576zm3.734 2.315c-1.344.723-3.138 1.696-3.673 2.34-.874 1.052-1.249 1.129-.577-.412.797-1.829 2.986-3.155 4.579-4.006 0 0 2.358-1.158 3.134-2.299.368-.541.666-.621.775-.496.108.125.108.125-.179.797-1.13 2.319-2.421 3.199-4.059 4.076z"/><g><path fill="#fff" d="M25 130h4v4h-4v-4zm6 4h4v-4h-4v4zm5-9v1h-1v2h-4v-3h-2v3h-4v-2h-1v-1h1.111c-.017 0-.005-.217.042-.385l.343-1.772c.146-.521.589-.843 1.104-.843.21 0 .422.07.614.184l2.387 1.438c.158.091.292.215.398.356.105-.143.239-.261.396-.353l2.393-1.437c.191-.11.404-.17.614-.17.516 0 .958.348 1.104.869l.339 1.719c.047.172.06.392.042.392l1.113.002zm-9.325-1.904s-.732 1.904-.675 1.904h2.813l-2.138-1.904zm6.651-.065l-2.012 1.969h2.687c.06 0-.675-1.969-.675-1.969z"/><path fill="#fff" d="M35 130h-4v4h-2v-4h-4v-2h4v-3h2v3h4v2z" opacity=".3"/></g><path fill="#fff" d="M6 122.229c-3.188 0-5.771 2.584-5.771 5.771s2.584 5.771 5.771 5.771 5.771-2.584 5.771-5.771-2.584-5.771-5.771-5.771zm1 8.771h-2v-1h2v1zm-.138-2.491c-.052.27-.32.491-.594.491h-.536c-.274 0-.542-.221-.594-.491l-.579-3.018c-.052-.27.131-.491.406-.491h2.07c.274 0 .458.221.405.491l-.578 3.018z"/><polygon fill="#fff" points="467,103 464.413,103 466.241,101.172 464.827,99.758 463,101.586 463,99 461,99 461,101.586 459.172,99.758 457.757,101.172 459.585,103 457,103 457,105 459.586,105 457.758,106.828 459.172,108.242 461,106.414 461,109 463,109 463,106.415 464.826,108.242 466.241,106.828 464.413,105 467,105"/><rect x="434" y="103" fill="#fff" width="9" height="3"/><polygon fill="#fff" points="419,103 415,103 415,99 412,99 412,103 408,103 408,106 412,106 412,110 415,110 415,106 419,106"/><g fill="#fff"><polygon points="387.293,105.293 384.343,108.242 385.758,109.657 388.707,106.707 390,108 390,104 386,104"/><polygon points="395.657,99.758 394.242,98.343 391.293,101.293 390,100 390,104 394,104 392.707,102.707"/></g><path fill="#fff" d="M372 102l-1.292-1.292-2.938 2.938-1.416-1.416 2.938-2.938-1.292-1.292h4v4zm-7.768 2.354l-2.938 2.939-1.294-1.293v4h4l-1.293-1.293 2.938-2.939-1.413-1.414z"/><path fill="#fff" d="M342 108.008l6-4.479-6-4.529v2.708c-4.292.229-5.845 2.917-6 6.292.983-2.125 3.594-2.938 6-3v3.008z"/><polygon fill="#fff" points="319,104 319,98 316,98 316,104 313.038,104 317.486,110 321.983,104"/><polygon fill="#fff" points="294.535,98 290.038,104 293,104 293,110 296,110 296,104 298.983,104"/><polygon fill="#fff" points="270,109.008 276,104.527 270,100 270,103 264,103 264,106 270,106"/><polygon fill="#fff" points="252,103 246,103 246,100 240,104.527 246,109.008 246,106 252,106"/><path fill="#fff" d="M222 98.229c-3.188 0-5.771 2.584-5.771 5.771s2.584 5.771 5.771 5.771 5.771-2.584 5.771-5.771-2.584-5.771-5.771-5.771zm-4.271 5.771c0-2.355 1.916-4.271 4.271-4.271.827 0 1.594.248 2.249.656l-5.865 5.863c-.408-.654-.655-1.421-.655-2.248zm4.271 4.271c-.804 0-1.546-.236-2.188-.623l5.837-5.836c.387.643.622 1.385.622 2.188 0 2.355-1.916 4.271-4.271 4.271z"/><g fill="#fff"><path d="M198 99.729c2.354 0 4.271 1.916 4.271 4.271s-1.916 4.271-4.271 4.271-4.271-1.916-4.271-4.271 1.916-4.271 4.271-4.271m0-1.5c-3.188 0-5.771 2.584-5.771 5.771s2.584 5.771 5.771 5.771 5.771-2.584 5.771-5.771-2.584-5.771-5.771-5.771z"/><polygon points="195.501,104.635 196.633,103.504 197.499,104.37 199.543,102.326 200.674,103.457 197.5,106.631"/></g><g fill="#fff"><path d="M174 99.729c2.354 0 4.271 1.916 4.271 4.271s-1.916 4.271-4.271 4.271-4.271-1.916-4.271-4.271 1.916-4.271 4.271-4.271m0-1.5c-3.188 0-5.771 2.584-5.771 5.771s2.584 5.771 5.771 5.771 5.771-2.584 5.771-5.771-2.584-5.771-5.771-5.771z"/><polygon points="173.999,104.807 172.647,106.157 171.842,105.354 173.194,104 171.841,102.646 172.646,101.842 173.999,103.193 175.352,101.842 176.157,102.646 174.804,104 176.156,105.354 175.352,106.158"/></g><path fill="#fff" d="M155.678 103h-1.712c-.374-1.479-1.966-2.636-2.966-3.004v-1.996h-2v1.9980000000000002c-2 .371-2.683 1.525-3.056 3.001h-1.944v2h1.936c.366 1.487 1.063 2.653 3.063 3.026v1.975h2v-1.971c1-.37 2.606-1.538 2.974-3.028h2.027v-2l-.322-.001zm-4.678 4.062v-2.062h-2v2.061c-1-.321-1.78-1.086-2.098-2.061h2.098v-2h-2.089c.32-.962 1.089-1.715 2.089-2.034v2.034h2v-2.037c1 .316 1.678 1.072 2 2.037h-2v2h2.008c-.318.977-1.008 1.743-2.008 2.062z"/><path fill="#fff" d="M126 98.229c-3.188 0-5.771 2.584-5.771 5.771s2.584 5.771 5.771 5.771 5.771-2.584 5.771-5.771-2.584-5.771-5.771-5.771zm-1 2.771h2v1h-2v-1zm3 6h-4v-1h1v-2h-1v-1h3v3h1v1z"/><path fill="#fff" d="M102 98.229c-3.188 0-5.771 2.584-5.771 5.771s2.584 5.771 5.771 5.771 5.771-2.584 5.771-5.771-2.584-5.771-5.771-5.771zm1 8.771h-2v-1h2v1zm0-2h-2c-.031-1.359 1.105-1.585 1.105-1.585.296-.192.312-.2.312-.493 0-.222-.157-.365-.406-.365-.404 0-.601-.033-.623.346-.01.174-.151.099-.323.099h-1.432c0-1.833 1.136-2.392 2.382-2.392.71 0 2.28.173 2.28 1.97l-1.295 2.42z"/><path fill="#fff" d="M78 98.229c-3.188 0-5.771 2.584-5.771 5.771s2.584 5.771 5.771 5.771 5.771-2.584 5.771-5.771-2.584-5.771-5.771-5.771zm-.537 9.031l-2.767-2.77 1.745-1.744 1.021 1.021 2.361-2.361 1.742 1.744-4.102 4.11z"/><path fill="#fff" d="M54 98.229c-3.188 0-5.771 2.584-5.771 5.771s2.584 5.771 5.771 5.771 5.771-2.584 5.771-5.771-2.584-5.771-5.771-5.771zm3.535 7.185l-2.121 2.121-1.414-1.414-1.414 1.414-2.122-2.121 1.415-1.414-1.414-1.414 2.121-2.122 1.414 1.414 1.414-1.413 2.122 2.121-1.414 1.414 1.413 1.414z"/><path fill="#fff" d="M30 98.229c-3.188 0-5.771 2.584-5.771 5.771s2.584 5.771 5.771 5.771 5.771-2.584 5.771-5.771-2.584-5.771-5.771-5.771zm3 6.771h-6v-2h6v2z"/><path fill="#fff" d="M6 98.229c-3.188 0-5.771 2.584-5.771 5.771s2.584 5.771 5.771 5.771 5.771-2.584 5.771-5.771-2.584-5.771-5.771-5.771zm3 6.771h-2v2h-2v-2h-2v-2h2v-2h2v2h2v2z"/><polygon fill="#fff" points="459.149,84.059 462.677,80.531 459.149,77.003 461.129,75.023 466.644,80.523 466.639,80.528 466.646,80.536 461.129,86.038"/><polygon fill="#fff" points="440.854,84.059 437.326,80.531 440.854,77.003 438.875,75.023 433.36,80.523 433.365,80.528 433.358,80.536 438.875,86.038"/><g fill="#fff"><path d="M420 82.5c0-.276-.225-.5-.5-.5h-10c-.276 0-.5.224-.5.5v1c0 .276.224.5.5.5h10c.275 0 .5-.224.5-.5v-1z"/><polygon points="420,81 409,81 414.5,75.359"/></g><path fill="#fff" d="M393.5 75h-1c-.276 0-.5.224-.5.5v4.375l-5-4.875v11l5-4.875v4.375c0 .276.224.5.5.5h1c.275 0 .5-.224.5-.5v-10c0-.276-.224-.5-.5-.5z"/><path fill="#fff" d="M371.5 75h-1c-.276 0-.5.224-.5.5v4.375l-5-4.875v4.875l-5-4.875v11l5-4.875v4.875l5-4.875v4.375c0 .276.224.5.5.5h1c.275 0 .5-.224.5-.5v-10c0-.276-.224-.5-.5-.5z"/><polygon fill="#fff" points="346.641,80.5 341,75 341,79.875 336,75 336,86 341,81.125 341,86"/><path fill="#fff" d="M323 84.5c0 .275-.226.5-.5.5h-8c-.275 0-.5-.225-.5-.5v-8c0-.275.225-.5.5-.5h8c.274 0 .5.225.5.5v8z"/><g fill="#fff"><path d="M293 84.5c0 .276-.225.5-.5.5h-2c-.276 0-.5-.224-.5-.5v-8c0-.276.224-.5.5-.5h2c.275 0 .5.224.5.5v8z"/><path d="M297 84.5c0 .276-.225.5-.5.5h-2c-.276 0-.5-.224-.5-.5v-8c0-.276.224-.5.5-.5h2c.275 0 .5.224.5.5v8z"/></g><polygon fill="#fff" points="266,86 266,75 275,80.5"/><polygon fill="#fff" points="252,75 247,79.875 247,75 241.359,80.5 247,86 247,81.125 252,86"/><path fill="#fff" d="M228 75l-5 4.875v-4.875l-5 4.875v-4.375c0-.276-.225-.5-.5-.5h-1c-.276 0-.5.224-.5.5v10c0 .276.224.5.5.5h1c.275 0 .5-.224.5-.5v-4.375l5 4.875v-4.875l5 4.875v-11z"/><path fill="#fff" d="M201 75l-5 4.875v-4.375c0-.276-.225-.5-.5-.5h-1c-.276 0-.5.224-.5.5v10c0 .276.224.5.5.5h1c.275 0 .5-.224.5-.5v-4.375l5 4.875v-11z"/><polygon fill="#fff" points="180,79.976 177,77.024 177,79 175,79 175,77 176.951,77 174,74 171,77 173,77 173,79 171,79 171,77.024 168,79.976 171,82.976 171,81 173,81 173,83 171,83 174,86 176.951,83 175,83 175,81 177,81 177,82.976"/><g fill="#fff"><polygon points="147.422,79.684 148.785,78.321 150.25,79.787 154.553,75.484 155.915,76.848 150.252,82.516"/><path d="M153 82.309v.691c0 .55-.45 1-1 1h-5c-.55 0-1-.45-1-1v-5c0-.55.45-1 1-1h3.492l1.773-1.774c-.4-.135-.821-.226-1.265-.226h-3c-2.2 0-4 1.8-4 4v3c0 2.2 1.8 4 4 4h3c2.2 0 4-1.8 4-4v-1.691l-2 2z"/></g><g fill="#fff"><path d="M128.129 79.601s-2.819-.187-3.902 1.158c.565-3.276 3.913-3.328 3.913-3.328l-.006-2.165 3.592 3.188-3.597 3.239v-2.092z"/><path d="M129 82.998v.002c0 .55-.45 1-1 1h-5c-.55 0-1-.45-1-1v-5c0-.55.45-1 1-1h1.449c.521-.543 1.222-.969 2.176-1.204l-.016-.796h-2.609c-2.2 0-4 1.8-4 4v3c0 2.2 1.8 4 4 4h3c2.2 0 4-1.8 4-4v-.525l-2 1.523z"/></g><g fill="#fff"><path d="M100.906 80.894l4.054-4.052 1.131 1.131-4.118 4.118-1.61.499.543-1.696zm5.043-5.042l1.131-1.131.92.279.212.852-1.132 1.131-1.131-1.131z"/><path d="M105 81.75v1.25c0 .55-.45 1-1 1h-5c-.55 0-1-.45-1-1v-5c0-.55.45-1 1-1h3.112l1.864-1.864c-.313-.08-3.976-.136-3.976-.136-2.2 0-4 1.8-4 4v3c0 2.2 1.8 4 4 4h3c2.2 0 4-1.8 4-4v-2.25l-2 2z"/></g><path fill="#fff" d="M77.542 73.054c-1.108 3.556-4.371 5.514-4.371 8.892 0 2.474 2.155 3.907 4.371 4.021 2.079-.114 4.371-1.575 4.371-4.052 0-3.374-3.309-5.306-4.371-8.861zm-.992 9.987l-.161.981c-1.271-.37-1.776-1.124-1.961-2.163-.185-1.04.063-1.891 1.318-3.402 0 0-.387 1.802-.049 3.169.226.913.853 1.415.853 1.415z"/><path fill="#fff" d="M54 74.229c-3.188 0-5.771 2.584-5.771 5.771s2.584 5.771 5.771 5.771 5.771-2.584 5.771-5.771-2.584-5.771-5.771-5.771zm-4.271 5.771c0-2.355 1.916-4.271 4.271-4.271v8.543c-2.355-.001-4.271-1.917-4.271-4.272z"/><path fill="#fff" d="M34.779 78.699c0 .843-.279 1.73-.695 2.585-1.568 2.435-3.553 4.669-3.553 4.669s-2.28-2.156-3.738-4.713c-.365-.798-.604-1.643-.604-2.488 0-2.377 1.922-4.441 4.295-4.441s4.295 2.011 4.295 4.388zm-2.042-.221c0-1.225-.991-2.215-2.214-2.215-1.222 0-2.214.99-2.214 2.215 0 1.224.992 2.214 2.214 2.214s2.214-.991 2.214-2.214z"/><path fill="#fff" d="M.94 82.814l2.229 2.229-3.327 1.114 1.098-3.343zm.903-.814l6.142-6.142 2.141 2.142-6.143 6.142-2.14-2.142zm7.001-6.999l.941-.966c.087-.087.202-.135.326-.135.123 0 .239.048.326.134l1.53 1.53c.179.18.179.473 0 .651l-.986.923-2.137-2.137z"/><path fill="#fff" d="M468 51.438c0-.241-.195-.438-.438-.438h-11.125c-.242 0-.438.196-.438.438v10.125c0 .241.195.438.438.438h11.125c.242 0 .438-.196.438-.438v-10.125zm-1 5.562l-2.359-2.875-2.932 3.178.743 1.557-2.983-1.312-2.469 1.827v-7.375h10v5zm-6.238-2.502c0-.742-.603-1.342-1.342-1.342-.74 0-1.343.6-1.343 1.342s.603 1.342 1.343 1.342c.739 0 1.342-.6 1.342-1.342z"/><g fill="#fff"><path d="M441 56.434v-3.684c0-.412-.339-.75-.75-.75h-7.5c-.412 0-.75.338-.75.75v6.5c0 .412.338.75.75.75h7.5c.411 0 .75-.338.75-.75v-2.816z"/><polygon points="444,53 441,56 444,59"/></g><g fill="#fff"><path d="M410 52.5c0 .275-.226.5-.5.5h-1c-.275 0-.5-.225-.5-.5v-1c0-.275.225-.5.5-.5h1c.274 0 .5.225.5.5v1z"/><path d="M414 55.5c0 .275-.226.5-.5.5h-5c-.275 0-.5-.225-.5-.5v-1c0-.275.225-.5.5-.5h5c.274 0 .5.225.5.5v1z"/><path d="M412 58.5c0 .275-.226.5-.5.5h-3c-.275 0-.5-.225-.5-.5v-1c0-.275.225-.5.5-.5h3c.274 0 .5.225.5.5v1z"/><path d="M415 61.5c0 .275-.226.5-.5.5h-6c-.275 0-.5-.225-.5-.5v-1c0-.275.225-.5.5-.5h6c.274 0 .5.225.5.5v1z"/><rect x="416" y="51" width="1" height="11"/><polygon points="417.334,56.5 419,55.25 419,56 421,56 421,57 419,57 419,57.75"/></g><g fill="#fff"><path d="M391 52.5c0 .275-.226.5-.5.5h-1c-.275 0-.5-.225-.5-.5v-1c0-.275.225-.5.5-.5h1c.274 0 .5.225.5.5v1z"/><path d="M395 55.5c0 .275-.226.5-.5.5h-5c-.275 0-.5-.225-.5-.5v-1c0-.275.225-.5.5-.5h5c.274 0 .5.225.5.5v1z"/><path d="M393 58.5c0 .275-.226.5-.5.5h-3c-.275 0-.5-.225-.5-.5v-1c0-.275.225-.5.5-.5h3c.274 0 .5.225.5.5v1z"/><path d="M396 61.5c0 .275-.226.5-.5.5h-6c-.275 0-.5-.225-.5-.5v-1c0-.275.225-.5.5-.5h6c.274 0 .5.225.5.5v1z"/><rect x="387" y="51" width="1" height="11"/><polygon points="386.666,56.5 385,55.25 385,56 383,56 383,57 385,57 385,57.75"/></g><g fill="#fff"><path d="M360 61.5c0 .275.225.5.5.5h1c.274 0 .5-.225.5-.5v-1c0-.275-.226-.5-.5-.5h-1c-.275 0-.5.225-.5.5v1z"/><path d="M360 58.5c0 .275.225.5.5.5h1c.274 0 .5-.225.5-.5v-1c0-.275-.226-.5-.5-.5h-1c-.275 0-.5.225-.5.5v1z"/><path d="M360 55.5c0 .275.225.5.5.5h1c.274 0 .5-.225.5-.5v-1c0-.275-.226-.5-.5-.5h-1c-.275 0-.5.225-.5.5v1z"/><path d="M360 52.5c0 .275.225.5.5.5h1c.274 0 .5-.225.5-.5v-1c0-.275-.226-.5-.5-.5h-1c-.275 0-.5.225-.5.5v1z"/><path d="M363 61.5c0 .275.225.5.5.5h8c.274 0 .5-.225.5-.5v-1c0-.275-.226-.5-.5-.5h-8c-.275 0-.5.225-.5.5v1z"/><path d="M363 58.5c0 .275.225.5.5.5h8c.274 0 .5-.225.5-.5v-1c0-.275-.226-.5-.5-.5h-8c-.275 0-.5.225-.5.5v1z"/><path d="M363 55.5c0 .275.225.5.5.5h8c.274 0 .5-.225.5-.5v-1c0-.275-.226-.5-.5-.5h-8c-.275 0-.5.225-.5.5v1z"/><path d="M363 52.5c0 .275.225.5.5.5h8c.274 0 .5-.225.5-.5v-1c0-.275-.226-.5-.5-.5h-8c-.275 0-.5.225-.5.5v1z"/></g><g fill="#fff"><path d="M336 61.5c0 .275.225.5.5.5h11c.274 0 .5-.225.5-.5v-1c0-.275-.226-.5-.5-.5h-11c-.275 0-.5.225-.5.5v1z"/><path d="M336 58.5c0 .275.225.5.5.5h11c.274 0 .5-.225.5-.5v-1c0-.275-.226-.5-.5-.5h-11c-.275 0-.5.225-.5.5v1z"/><path d="M336 55.5c0 .275.225.5.5.5h11c.274 0 .5-.225.5-.5v-1c0-.275-.226-.5-.5-.5h-11c-.275 0-.5.225-.5.5v1z"/><path d="M336 52.5c0 .275.225.5.5.5h11c.274 0 .5-.225.5-.5v-1c0-.275-.226-.5-.5-.5h-11c-.275 0-.5.225-.5.5v1z"/></g><g fill="#fff"><path d="M317 52.5c0 .275.225.5.5.5h6c.274 0 .5-.225.5-.5v-1c0-.275-.226-.5-.5-.5h-6c-.275 0-.5.225-.5.5v1z"/><path d="M313 55.5c0 .275.225.5.5.5h10c.274 0 .5-.225.5-.5v-1c0-.275-.226-.5-.5-.5h-10c-.275 0-.5.225-.5.5v1z"/><path d="M315 58.5c0 .275.225.5.5.5h8c.274 0 .5-.225.5-.5v-1c0-.275-.226-.5-.5-.5h-8c-.275 0-.5.225-.5.5v1z"/><path d="M312 61.5c0 .275.225.5.5.5h11c.274 0 .5-.225.5-.5v-1c0-.275-.226-.5-.5-.5h-11c-.275 0-.5.225-.5.5v1z"/></g><g fill="#fff"><path d="M298 52.5c0 .275-.226.5-.5.5h-7c-.275 0-.5-.225-.5-.5v-1c0-.275.225-.5.5-.5h7c.274 0 .5.225.5.5v1z"/><path d="M298 58.5c0 .275-.226.5-.5.5h-7c-.275 0-.5-.225-.5-.5v-1c0-.275.225-.5.5-.5h7c.274 0 .5.225.5.5v1z"/><path d="M300 61.5c0 .275-.226.5-.5.5h-11c-.275 0-.5-.225-.5-.5v-1c0-.275.225-.5.5-.5h11c.274 0 .5.225.5.5v1z"/><path d="M300 55.5c0 .275-.226.5-.5.5h-11c-.275 0-.5-.225-.5-.5v-1c0-.275.225-.5.5-.5h11c.274 0 .5.225.5.5v1z"/></g><g fill="#fff"><path d="M271 52.5c0 .275-.226.5-.5.5h-6c-.275 0-.5-.225-.5-.5v-1c0-.275.225-.5.5-.5h6c.274 0 .5.225.5.5v1z"/><path d="M275 55.5c0 .275-.226.5-.5.5h-10c-.275 0-.5-.225-.5-.5v-1c0-.275.225-.5.5-.5h10c.274 0 .5.225.5.5v1z"/><path d="M273 58.5c0 .275-.226.5-.5.5h-8c-.275 0-.5-.225-.5-.5v-1c0-.275.225-.5.5-.5h8c.274 0 .5.225.5.5v1z"/><path d="M276 61.5c0 .275-.226.5-.5.5h-11c-.275 0-.5-.225-.5-.5v-1c0-.275.225-.5.5-.5h11c.274 0 .5.225.5.5v1z"/></g><g fill="#fff"><path d="M249.5 50h-8.5v3h.498c.002-1 .617-1 1.502-1h2v6.5l-1 .5v1h4v-1l-1-.5v-6.5h2c.885 0 1.5 0 1.502 1h.498v-3h-1.5z"/><polygon points="242,60.25 240.334,61.5 242,62.75 242,62 250,62 250,62.75 251.666,61.5 250,60.25 250,61 242,61"/></g><g fill="#fff"><path d="M227.5 50h-8.5v3h.498c.002-1 .617-1 1.502-1h2v8.5l-1 .5v1h4v-1l-1-.5v-8.5h2c.885 0 1.5 0 1.502 1h.498v-3h-1.5z"/><polygon points="217.75,52 216.5,50.334 215.25,52 216,52 216,60 215.25,60 216.5,61.666 217.75,60 217,60 217,52"/></g><path fill="#fff" d="M200.786 50.572l-.012-.572h-4.257v.572c1 .269 1.37.3 1.219 1.162l-1.736 8.485c-.114.646-1 1.12-2 1.209v.572h5v-.572c-1-.089-1.208-.531-1.095-1.178l1.281-8.25c.002 0 .41-1.159 1.6-1.428z"/><path fill="#fff" d="M175.634 55.75s1.137-.63 1.137-2.58c0-1.955-1.562-3.16-3.062-3.16l-4.709-.01v.715c1 .235 1 .391 1 1.145v8.275c0 .565-.5.895-1 .975v.89h5c1.55 0 3.625-1.281 3.625-3.061 0-2.5-1.991-3.189-1.991-3.189zm-3.634-4.75c2.108 0 3.229.672 3.229 2 0 .988-.802 2-1.838 2h-1.391v-4zm1.609 9h-1.609v-4h1.594s2.187 1.014 2.187 2.188c0 1.169-1.062 1.812-2.172 1.812z"/><path fill="#fff" d="M156 61.338v.662h-4.17v-.662c.75 0 1.002-.771.799-1.321l-.824-2.22h-3.91s-.574 1.455-.918 2.348c-.344.895.462 1.193 1.203 1.193v.662h-3.649v-.662s.562-.24.839-.515c.275-.276.517-.75.517-.75l3.995-10.063h.931l3.85 9.978s.2.504.6.925c.399.419.737.425.737.425zm-4.44-4.551l-1.16-3.167-.457-1.399-1.787 4.566h3.404z"/><g fill="#fff"><path d="M127.062 57c0 .586-.477 1.062-1.062 1.062s-1.062-.477-1.062-1.062.478-1.062 1.062-1.062 1.062.476 1.062 1.062zm4.938-3v6c0 .55-.45 1-1 1h-10c-.55 0-1-.45-1-1v-6c0-.55.45-1 1-1h1.5s1.016-2 2.5-2h2l2.5 2h1.5c.55 0 1 .45 1 1zm-3.562 3c0-1.344-1.094-2.438-2.438-2.438-1.345 0-2.438 1.094-2.438 2.438s1.094 2.438 2.438 2.438 2.438-1.094 2.438-2.438zm1.562-3h-1v1h1v-1z"/><rect x="129" y="54" opacity=".5" enable-background="new" width="1" height="1"/></g><g fill="#fff"><path d="M105.474 53.708l-.625 1.245h-5.922l-.4-1.245.947-3.46c.014-.137.138-.248.276-.248h4.5c.138 0 .262.111.275.248l.949 3.46z"/><path d="M104.811 60.242c-.034-.133-.173-.242-.311-.242h-5c-.139 0-.277.109-.312.242l-.379 1.516c-.032.133.053.242.191.242h6c.138 0 .223-.109.188-.242l-.377-1.516z"/><polygon points="106,54 105,56 99,56 98,54 96,54 96,61 98,61 98,59 106,59 106.003,61 108,61 108,54"/></g><path fill="#fff" d="M74 50.5c0-.275.225-.5.5-.5h8c.274 0 .5.225.5.5v11.5l-4.5-4.438-4.5 4.445v-11.507z"/><polygon fill="#fff" points="50.75,50 49,51.75 49,62 58,62 58,52 50.5,52 51.5,51 59,51 59,61 60,60 60,50"/><g><path fill="#fff" d="M29 50h-4.735c-.139 0-.254.112-.254.252l-.011 4.748 7 7 5-5-7-7zm-1.803 3.183c-.394.395-1.031.395-1.425 0-.394-.394-.394-1.03 0-1.425.395-.394 1.031-.394 1.425 0 .394.394.394 1.031 0 1.425z"/><polygon fill="#fff" points="32,50 31,50 38,57 33.5,61.5 34,62 39,57"/></g><path fill="#fff" d="M5 50h-4.735c-.139 0-.254.112-.254.252l-.011 4.748 7 7 5-5-7-7zm-1.803 3.183c-.394.395-1.031.395-1.425 0-.394-.394-.394-1.03 0-1.425.395-.394 1.031-.394 1.425 0 .394.394.394 1.031 0 1.425z"/><path fill="#fff" d="M457 36h-1v-10h1v10zm4 2h1v-.906h-1v.906zm-2-12h-1v10h1v-10zm4 0h-2v10h2v-10zm-6 11v1h3v-1h-3zm6 1h1v-.906h-1v.906zm2-.906v.906h2v-.906h-2zm2-11.094h-1v10h2v-10h-1zm-2 0h-1v10h1v-10z"/><path fill="#fff" d="M434 28h1v1h-1v-1zm8 3v1h2v2h-3v-3h-2v-3h-1v-2h6v5h-2zm1-1v-3h-3v3h3zm-2-1h1v-1h-1v1zm-6 6h-1v1h1v-1zm3 3h1v-1h-1v1zm-3-5h2v5h-5v-5h2v-1h1v1zm-2 1v3h3v-3h-3zm0-2h-1v-6h5v3h1v1h-1v1h-4v1zm0-2h3v-3h-3v3zm10 6h1v-1h-1v1zm-2 1v1h3v-1h-3zm1-1v-1h-2v-3h-3v1h2v2h-1v1h1v1h2v-1h1z"/><path fill="#fff" d="M419.225 32.016c0 1.466-.506 2.904-1.424 4.051l-.063.079-.803-.658.062-.077c.768-.962 1.19-2.168 1.19-3.395 0-1.249-.437-2.472-1.228-3.443l-.065-.08.82-.635.062.076c.935 1.151 1.449 2.601 1.449 4.082zm-4.204-2.589c.581.698.932 1.594.932 2.569 0 .934-.324 1.795-.862 2.479l.673.549c.662-.832 1.059-1.886 1.059-3.028 0-1.177-.418-2.256-1.112-3.099l-.69.53zm-7.021.573v4h3l3 2v-8l-3 2h-3z"/><path fill="#fff" d="M387 30l3-2v8l-3-2h-3v-4h3zm4.687-1.103l-.687.53c.58.698.932 1.594.932 2.569 0 .934-.324 1.795-.863 2.479l.675.549c.659-.832 1.057-1.886 1.057-3.028-.002-1.177-.419-2.256-1.114-3.099z"/><path fill="#fff" d="M363 30l3-2v8l-3-2h-3v-4h3zm8.121.586l-.707-.707-1.414 1.414-1.414-1.415-.707.708 1.414 1.414-1.414 1.414.707.707 1.414-1.414 1.414 1.414.707-.707-1.414-1.414 1.414-1.414z"/><path fill="#fff" d="M348 32.25v3c0 .138-.112.25-.25.25h-.5c-.139 0-.25-.112-.25-.25v-3c0-2.619-2.381-4.5-5-4.5s-5 1.881-5 4.5v3c0 .138-.112.25-.25.25h-.5c-.139 0-.25-.112-.25-.25v-3c0-3.17 2.83-6 6-6s6 2.83 6 6zm-8 .95c0-.11-.09-.2-.2-.2h-1.6c-.11 0-.2.09-.2.2v4.6c0 .11.09.2.2.2h1.6c.11 0 .2-.09.2-.2v-4.6zm6 0c0-.11-.09-.2-.2-.2h-1.6c-.11 0-.2.09-.2.2v4.6c0 .11.09.2.2.2h1.6c.11 0 .2-.09.2-.2v-4.6z"/><path fill="#fff" d="M323 27v5c-2 4-5-1-8 2v-5c1-4 6 2 8-2zm-9 0h-1v11h1v-11z"/><path fill="#fff" d="M298 30h-1v-2c0-1.1-.9-2-2-2h-3c-1.101 0-2 .9-2 2v2h-1c-.55 0-1 .45-1 1v6c0 .55.45 1 1 1h9c.55 0 1-.45 1-1v-6c0-.55-.45-1-1-1zm-6-1.5c0-.275.225-.5.5-.5h2c.274 0 .5.225.5.5v1.5h-3v-1.5z"/><path fill="#fff" d="M274 36h-5v-1h5v1zm0-7h-5v1h5v-1zm0 2h-5v1h5v-1zm-6-2h-1v1h1v-1zm6 4h-5v1h5v-1zm2-7v12h-11v-12h11zm-1 2h-9v9h9v-9zm-7 7h-1v1h1v-1zm0-4h-1v1h1v-1zm0 2h-1v1h1v-1z"/><g fill="#fff"><path d="M246 36.271c-.923 0-1.772-.301-2.472-.801l1.471-1.471h-3.999v4l1.453-1.454c.979.766 2.208 1.226 3.547 1.226 3.187 0 5.771-2.584 5.771-5.771h-1.5c0 2.355-1.916 4.271-4.271 4.271z"/><path d="M246 27.729c.922 0 1.771.301 2.471.801l-1.471 1.47h4v-4l-1.454 1.453c-.979-.765-2.208-1.225-3.546-1.225-3.188 0-5.771 2.584-5.771 5.771h1.5c0-2.354 1.916-4.27 4.271-4.27z"/></g><path fill="#fff" d="M227.771 32c0 3.188-2.584 5.771-5.771 5.771-3.188 0-5.771-2.584-5.771-5.771s2.584-5.771 5.771-5.771c1.339 0 2.569.458 3.548 1.224l1.452-1.453v4h-4l1.463-1.463c-.694-.503-1.539-.809-2.463-.809-2.355 0-4.271 1.916-4.271 4.271s1.916 4.271 4.271 4.271c2.354 0 4.271-1.916 4.271-4.271l1.5.001z"/><g fill="#fff"><path d="M198 27.729c2.354 0 4.271 1.916 4.271 4.271s-1.916 4.271-4.271 4.271-4.271-1.916-4.271-4.271 1.916-4.271 4.271-4.271m0-1.5c-3.188 0-5.771 2.584-5.771 5.771s2.584 5.771 5.771 5.771 5.771-2.584 5.771-5.771-2.584-5.771-5.771-5.771z"/><polygon points="197,34.027 197,30.018 199.969,32.022"/></g><path fill="#fff" d="M180 33c-.001 0-2-7-2-7h-8s-1.99 7-1.991 7l-.009 4.75c0 .138.111.25.25.25h11.5c.138 0 .25-.112.25-.25v-4.75zm-9.031-5h6.062l.97 5h-2l-.5 2h-3l-.5-2h-2l.968-5z"/><g><path fill="#fff" d="M150 26.229c-3.188 0-5.771 2.584-5.771 5.771s2.583 5.771 5.771 5.771c3.187 0 5.771-2.584 5.771-5.771s-2.584-5.771-5.771-5.771zm0 10.042c-2.355 0-4.271-1.916-4.271-4.271s1.916-4.271 4.271-4.271c2.354 0 4.271 1.916 4.271 4.271s-1.916 4.271-4.271 4.271z"/><polygon fill="#fff" points="150,29 152.5,32 151,32 151,35 149,35 149,32 147.5,32"/></g><g fill="#fff"><path d="M126 26.229c-3.188 0-5.771 2.584-5.771 5.771s2.583 5.771 5.771 5.771c3.187 0 5.771-2.584 5.771-5.771s-2.584-5.771-5.771-5.771zm0 10.042c-2.355 0-4.271-1.916-4.271-4.271s1.916-4.271 4.271-4.271c2.354 0 4.271 1.916 4.271 4.271s-1.916 4.271-4.271 4.271z"/><polygon points="127,29 125,29 125,32 123.5,32 126,35 128.5,32 127,32"/></g><path fill="#fff" d="M102.104 34l2.896-3h-2v-5h-3v5h-2l2.896 3h-4.896v4h11v-4h-4.896zm3.771 2h-1.75v-1h1.75v1z"/><path fill="#fff" d="M79.615 38h5.385l-4.309-12h-2.083l.198 3h-1.615l.203-3h-2.088l-4.306 12h5.385l.403-4h2.424l.403 4zm-2.737-5l.27-3h1.705l.271 3h-2.246z"/><g fill="#fff"><polygon points="54,29 53,29 53,33 56,33 56,32 54,32"/><path d="M54 26.229c-3.188 0-5.771 2.584-5.771 5.771s2.584 5.771 5.771 5.771 5.771-2.584 5.771-5.771-2.584-5.771-5.771-5.771zm0 10.042c-2.355 0-4.271-1.916-4.271-4.271s1.916-4.271 4.271-4.271c2.354 0 4.271 1.916 4.271 4.271s-1.916 4.271-4.271 4.271z"/></g><g fill="#fff"><polygon points="31,27 31,30 34,30"/><path d="M30 26h-4.75c-.138 0-.25.112-.25.25v11.5c0 .138.111.25.25.25h8.5c.138 0 .25-.112.25-.25v-6.75h-4v-5z"/></g><polygon fill="#fff" points="6.562,25.562 0,32 2,32 2,38 5,38 5,34 8,34 8,38 11,38 11,32 13,32"/><g fill="#fff"><path d="M467.75 3h-2.75v-1c0-.55-.45-1-1-1h-3c-.551 0-1 .45-1 1v1h-2.75c-.138 0-.25.112-.25.25v.5c0 .138.111.25.25.25h10.5c.138 0 .25-.112.25-.25v-.5c0-.138-.112-.25-.25-.25zm-6.729 0h-.021v-1h3v1h-2.979zm-3.021 10c0 .55.449 1 1 1h7c.55 0 1-.45 1-1v-8h-9v8zm7-7h1v7h-1v-7zm-2 0h1v7h-1v-7zm-2 0h1v7h-1v-7zm-2 0h1v7h-1v-7z"/><path opacity=".5" enable-background="new" d="M460 13h-1v-7h1v7zm2-7h-1v7h1v-7zm2 0h-1v7h1v-7zm2 0h-1v7h1v-7z"/></g><path fill="#fff" d="M438 13.732c-.25 0-.496-.021-.738-.053l-.379-1.515-.057-.016c-.325-.093-.641-.224-.935-.387l-.051-.028-1.337.803c-.422-.331-.757-.671-1.047-1.047l.803-1.337-.028-.051c-.165-.297-.295-.611-.385-.934l-.017-.056-1.516-.379c-.034-.278-.053-.507-.053-.74 0-.25.021-.496.053-.738l1.516-.379.017-.056c.09-.321.22-.636.386-.935l.028-.051-.804-1.338c.328-.417.667-.752 1.048-1.045l1.337.802.051-.028c.297-.165.611-.295.934-.385l.057-.016.379-1.516c.277-.034.507-.053.737-.053.253 0 .496.021.74.053l.379 1.516.057.016c.321.09.637.22.934.385l.051.028 1.336-.802c.421.331.757.669 1.048 1.045l-.803 1.338.028.051c.163.294.294.608.387.935l.017.056 1.515.379c.034.278.053.507.053.738 0 .252-.021.498-.053.74l-1.515.379-.017.056c-.094.326-.224.641-.387.934l-.027.051.802 1.336c-.33.421-.669.757-1.045 1.048l-1.337-.804-.051.028c-.293.163-.606.294-.936.388l-.057.016-.379 1.515c-.278.035-.506.053-.739.053zm0-7.884c-1.185 0-2.146.963-2.146 2.146 0 1.185.963 2.148 2.146 2.148 1.185 0 2.147-.964 2.147-2.148.001-1.183-.962-2.146-2.147-2.146z"/><path fill="#fff" d="M411 14h-2v-3h2v3zm3-5h-2v5h2v-5zm3-3h-2v8h2v-8zm3-4h-2v12h2v-12z"/><path fill="#fff" d="M391 6.5c0 .276-.225.5-.5.5h-1c-.276 0-.5-.224-.5-.5v-4c0-.276.224-.5.5-.5h1c.275 0 .5.224.5.5v4zm1-3.908v1.657c1.345.72 2.271 2.122 2.271 3.751 0 2.355-1.916 4.271-4.271 4.271s-4.271-1.916-4.271-4.271c0-1.629.927-3.031 2.271-3.751v-1.657c-2.2.814-3.771 2.925-3.771 5.408 0 3.188 2.584 5.771 5.771 5.771s5.771-2.584 5.771-5.771c0-2.483-1.571-4.594-3.771-5.408z"/><g><path fill="#fff" d="M372.131 12.684l-2.996-2.996c.486-.757.773-1.653.773-2.615 0-2.67-2.172-4.841-4.841-4.841-2.668 0-4.84 2.171-4.84 4.841 0 2.668 2.172 4.838 4.84 4.838.965 0 1.861-.286 2.616-.773l2.996 2.996c.1.1.264.1.363 0l1.087-1.087c.101-.1.101-.264.002-.363zm-10.365-5.612c0-1.822 1.482-3.304 3.303-3.304 1.822 0 3.304 1.481 3.304 3.304 0 1.82-1.48 3.302-3.304 3.302-1.821 0-3.303-1.481-3.303-3.302z"/><rect x="363" y="6" fill="#fff" width="4" height="2"/></g><g fill="#fff"><path d="M348.131 12.684l-2.996-2.996c.486-.757.773-1.653.773-2.615 0-2.67-2.172-4.841-4.841-4.841-2.668 0-4.84 2.171-4.84 4.841 0 2.668 2.172 4.838 4.84 4.838.965 0 1.861-.286 2.616-.773l2.996 2.996c.1.1.264.1.363 0l1.087-1.087c.101-.1.101-.264.002-.363zm-7.063-2.31c-1.819 0-3.303-1.481-3.303-3.302 0-1.822 1.482-3.304 3.303-3.304 1.822 0 3.304 1.481 3.304 3.304-.001 1.821-1.481 3.302-3.304 3.302z"/><polygon points="342,5 340,5 340,6 339,6 339,8 340,8 340,9 342,9 342,8 343,8 343,6 342,6"/></g><polygon fill="#fff" points="322.94,10.82 320.119,7.999 322.939,5.179 320.821,3.06 318,5.881 315.18,3.061 313.061,5.178 315.882,7.999 313.061,10.82 315.179,12.939 318,10.118 320.822,12.939"/><polygon fill="#fff" points="288.28,9.464 290.402,7.343 292.469,9.41 298.536,3.343 300.657,5.465 292.473,13.656"/><path fill="#fff" d="M267 9.5c0 .275-.226.5-.5.5h-2c-.275 0-.5-.225-.5-.5v-2c0-.275.225-.5.5-.5h2c.274 0 .5.225.5.5v2zm0 2c0-.275-.226-.5-.5-.5h-2c-.275 0-.5.225-.5.5v2c0 .275.225.5.5.5h2c.274 0 .5-.225.5-.5v-2zm0-8c0-.275-.226-.5-.5-.5h-2c-.275 0-.5.225-.5.5v2c0 .275.225.5.5.5h2c.274 0 .5-.225.5-.5v-2zm9 4c0-.275-.226-.5-.5-.5h-7c-.275 0-.5.225-.5.5v2c0 .275.225.5.5.5h7c.274 0 .5-.225.5-.5v-2zm0 4c0-.275-.226-.5-.5-.5h-7c-.275 0-.5.225-.5.5v2c0 .275.225.5.5.5h7c.274 0 .5-.225.5-.5v-2zm0-8c0-.275-.226-.5-.5-.5h-7c-.275 0-.5.225-.5.5v2c0 .275.225.5.5.5h7c.274 0 .5-.225.5-.5v-2z"/><path fill="#fff" d="M251 3.5c0-.275-.226-.5-.5-.5h-2c-.275 0-.5.225-.5.5v2c0 .275.225.5.5.5h2c.274 0 .5-.225.5-.5v-2zm0 4c0-.275-.226-.5-.5-.5h-2c-.275 0-.5.225-.5.5v2c0 .275.225.5.5.5h2c.274 0 .5-.225.5-.5v-2zm0 4c0-.275-.226-.5-.5-.5h-2c-.275 0-.5.225-.5.5v2c0 .275.225.5.5.5h2c.274 0 .5-.225.5-.5v-2zm-4-8c0-.275-.226-.5-.5-.5h-2c-.275 0-.5.225-.5.5v2c0 .275.225.5.5.5h2c.274 0 .5-.225.5-.5v-2zm0 4c0-.275-.226-.5-.5-.5h-2c-.275 0-.5.225-.5.5v2c0 .275.225.5.5.5h2c.274 0 .5-.225.5-.5v-2zm0 4c0-.275-.226-.5-.5-.5h-2c-.275 0-.5.225-.5.5v2c0 .275.225.5.5.5h2c.274 0 .5-.225.5-.5v-2zm-4-8c0-.275-.226-.5-.5-.5h-2c-.275 0-.5.225-.5.5v2c0 .275.225.5.5.5h2c.274 0 .5-.225.5-.5v-2zm0 4c0-.275-.226-.5-.5-.5h-2c-.275 0-.5.225-.5.5v2c0 .275.225.5.5.5h2c.274 0 .5-.225.5-.5v-2zm0 4c0-.275-.226-.5-.5-.5h-2c-.275 0-.5.225-.5.5v2c0 .275.225.5.5.5h2c.274 0 .5-.225.5-.5v-2z"/><path fill="#fff" d="M227 3.5c0-.275-.226-.5-.5-.5h-4c-.275 0-.5.225-.5.5v4c0 .275.225.5.5.5h4c.274 0 .5-.225.5-.5v-4zm0 6c0-.275-.226-.5-.5-.5h-4c-.275 0-.5.225-.5.5v4c0 .275.225.5.5.5h4c.274 0 .5-.225.5-.5v-4zm-6-6c0-.275-.226-.5-.5-.5h-4c-.275 0-.5.225-.5.5v4c0 .275.225.5.5.5h4c.274 0 .5-.225.5-.5v-4zm0 6c0-.275-.226-.5-.5-.5h-4c-.275 0-.5.225-.5.5v4c0 .275.225.5.5.5h4c.274 0 .5-.225.5-.5v-4z"/><g fill="#fff"><path d="M192 3v11h12v-11h-12zm2 10h-1v-1h1v1zm0-2h-1v-1h1v1zm0-2h-1v-1h1v1zm0-2h-1v-1h1v1zm0-2h-1v-1h1v1zm7 8h-6v-4h6v4zm0-5h-6v-4h6v4zm2 5h-1v-1h1v1zm0-2h-1v-1h1v1zm0-2h-1v-1h1v1zm0-2h-1v-1h1v1zm0-2h-1v-1h1v1z"/><rect x="195" y="4" opacity=".3" enable-background="new" width="6" height="4"/><rect x="195" y="9" opacity=".3" enable-background="new" width="6" height="4"/></g><path fill="#fff" d="M176 10v-1c.55 0 1-1.45 1-2v-2c0-1.65-1.351-3-3-3-1.65 0-3 1.35-3 3v2c0 .55.45 2 1 2v1l-4 2.574v1.426h12v-1.426l-4-2.574z"/><path fill="#fff" d="M155.734 6h-4.719l-1.461-4h-.016l-1.471 4h-4.788l3.88 2.803-1.457 4.478-.017.015 3.84-2.777 3.841 2.753-1.455-4.489 3.823-2.783zm-6.209 3.285l-1.923 1.391.734-2.257-1.963-1.419h2.395l.777-2.114.771 2.114h2.345l-1.924 1.399.741 2.286-1.953-1.4z"/><path fill="#fff" d="M131.734 6l-3.821 2.781 1.455 4.489-3.841-2.753-3.84 2.777.017-.015 1.457-4.478-3.88-2.801h4.788l1.471-4h.016l1.461 4h4.717z"/><path fill="#fff" d="M102.495 4.511c-1.859-2.847-5.5-.979-5.5 1.646 0 2.023 3.165 3.768 5.5 6.96 2.334-3.192 5.499-4.937 5.499-6.96 0-2.627-3.524-4.493-5.499-1.646z"/><path fill="#fff" d="M78 9.031l-6-6.031h12l-6 6.031zm0 1.969l-2-2-4 4h12l-4-4-2 2zm3-3l3 3v-6l-3 3zm-9-3v6l3-3-3-3z"/><path fill="#fff" d="M60.131 12.684l-2.997-2.996c.487-.757.774-1.653.774-2.615 0-2.67-2.172-4.841-4.841-4.841s-4.84 2.171-4.84 4.841c0 2.668 2.171 4.838 4.84 4.838.963 0 1.86-.286 2.616-.773l2.996 2.996c.1.1.264.1.363 0l1.087-1.087c.102-.1.102-.264.002-.363zm-10.365-5.612c0-1.822 1.482-3.304 3.303-3.304s3.303 1.481 3.303 3.304c0 1.82-1.48 3.302-3.303 3.302-1.821 0-3.303-1.481-3.303-3.302z"/><path fill="#fff" d="M35 2.192v8.808s-.64 1.301-1.527 1.589c-1.053.341-2.098.026-2.335-.704-.236-.729.425-1.598 1.479-1.939.489-.159.978-.174 1.384-.073v-5.21l-6 1.551v6.06c0 .539-.64 1.301-1.527 1.589-1.053.341-2.098.026-2.335-.704-.236-.729.425-1.598 1.479-1.939.489-.159.978-.174 1.384-.073v-6.89c0-.139.107-.28.241-.316l7.518-1.931c.131-.038.239.045.239.182z"/><polygon fill="#fff" points="7,7.5 12,2 0,2 5,7.5 5,13 2,13 2,14 10,14 10,13 7,13"/></svg>